# xmcd
# 
# Track frame offsets:
#     150
#     13212
#     23925
#     38437
#     54172
#     71437
#     83737
#     97812
#     116047
#     130147
#     140460
#     157547
#     167925
#     177697
#     189800
#     202650
# 
# Disc length: 2895
# 
# Revision: 1
# Processed by: cddbd v1.5.2PL0 Copyright (c) Steve Scherf et al.
# Submitted via: BonkEnc v1.0rc1
# 
DISCID=c00b4d10
DTITLE=Various Artist - CD2
DYEAR=0
DGENRE=Country
TTITLE0=Tom Astor - Ich bin Fernfahrer
TTITLE1=Ralf Paulsen - Geisterreiter (Riders in the Sky)
TTITLE2=Gunter Gabriel - Er ist ein Kerl (30-Tonner-Diesel-Song)
TTITLE3=Andre Lamberz and Hill's Angels - Auf der Autobahn (On the Road Again)
TTITLE4=Christian Anders - Ruby
TTITLE5=Johnny Cash - Folsom Prison Blues
TTITLE6=Country Green mit Tommy Oregon and Jill Morris - Schlaf nicht ein hinter'm Lenkrad
TTITLE7=Nashville Studio Band - Jeden Tag das gleiche Spiel
TTITLE8=Olivia Winter - Ich war noch nie in Kansas City
TTITLE9=Nev Nicholls - Truck Driving Man
TTITLE10=New Mavericks - Unter Freunden
TTITLE11=Nashville Music Company - Some Brocken Hearts never Mend
TTITLE12=Dave Duddley - Cowboy Boots
TTITLE13=Marion Maerz - Wer Liebt sucht (Stand by your man)
TTITLE14=Ralf Paulsen - Liebe heisst den Truck zu teilen
TTITLE15=John Denver - Take me Home Country Roads
EXTD=
EXTT0=
EXTT1=
EXTT2=
EXTT3=
EXTT4=
EXTT5=
EXTT6=
EXTT7=
EXTT8=
EXTT9=
EXTT10=
EXTT11=
EXTT12=
EXTT13=
EXTT14=
EXTT15=
PLAYORDER=
